<svg id="Group_5" data-name="Group 5" xmlns="http://www.w3.org/2000/svg" width="299.061" height="274.586" viewBox="0 0 299.061 274.586">
  <path id="Path_89" data-name="Path 89" d="M315.918,666.565c-4.9,3.376-9.917,6.86-13.312,11.751s-4.877,11.566-2.149,16.857l-.07.33a12.761,12.761,0,0,0,12.323-2.171c4.316-3.622,5.669-9.591,6.77-15.117l3.257-16.345Z" transform="translate(-295.032 -422.133)" fill="#f0f0f0"/>
  <path id="Path_90" data-name="Path 90" d="M328.524,704.594c-3.271.724-6.622,1.48-9.426,3.312s-4.989,5-4.686,8.336l-.106.157a7.181,7.181,0,0,0,6.885,1.474c3.017-.976,4.984-3.8,6.727-6.451l5.155-7.834Z" transform="translate(-302.916 -443.678)" fill="#f0f0f0"/>
  <path id="Path_91" data-name="Path 91" d="M609.687,195.37H330.423a.405.405,0,1,1,0-.811H609.687a.405.405,0,1,1,0,.811Z" transform="translate(-311.031 -180.779)" fill="#cacaca"/>
  <circle id="Ellipse_12" data-name="Ellipse 12" cx="4.458" cy="4.458" r="4.458" transform="translate(24.057 0)" fill="#3f3d56"/>
  <circle id="Ellipse_13" data-name="Ellipse 13" cx="4.458" cy="4.458" r="4.458" transform="translate(39.459 0)" fill="#3f3d56"/>
  <circle id="Ellipse_14" data-name="Ellipse 14" cx="4.458" cy="4.458" r="4.458" transform="translate(54.861 0)" fill="#3f3d56"/>
  <path id="Path_92" data-name="Path 92" d="M876.772,169.967H865.828a.811.811,0,1,1,0-1.621h10.944a.811.811,0,0,1,0,1.621Z" transform="translate(-587.344 -167.24)" fill="#3f3d56"/>
  <path id="Path_93" data-name="Path 93" d="M876.772,176.254H865.828a.811.811,0,1,1,0-1.621h10.944a.811.811,0,0,1,0,1.621Z" transform="translate(-587.344 -170.487)" fill="#3f3d56"/>
  <path id="Path_94" data-name="Path 94" d="M876.772,182.541H865.828a.811.811,0,1,1,0-1.621h10.944a.811.811,0,0,1,0,1.621Z" transform="translate(-587.344 -173.734)" fill="#3f3d56"/>
  <rect id="Rectangle_4" data-name="Rectangle 4" width="185.23" height="111.057" transform="translate(23.945 31.972)" fill="#f0f0f0"/>
  <rect id="Rectangle_5" data-name="Rectangle 5" width="58.366" height="34.994" transform="translate(231.873 31.972)" fill="#f0f0f0"/>
  <path id="Path_95" data-name="Path 95" d="M828.08,334.308H793.353a1.636,1.636,0,1,1,0-3.271H828.08a1.636,1.636,0,0,1,0,3.271Z" transform="translate(-549.486 -251.265)" fill="#e4e4e4"/>
  <path id="Path_96" data-name="Path 96" d="M828.462,322.728H804.933a1.636,1.636,0,0,1,0-3.271h23.529a1.636,1.636,0,0,1,0,3.271Z" transform="translate(-555.467 -245.285)" fill="#e4e4e4"/>
  <rect id="Rectangle_6" data-name="Rectangle 6" width="58.366" height="34.994" transform="translate(231.873 95.607)" fill="#f0f0f0"/>
  <path id="Path_97" data-name="Path 97" d="M828.08,465.913H793.353a1.636,1.636,0,1,1,0-3.271H828.08a1.636,1.636,0,0,1,0,3.271Z" transform="translate(-549.486 -319.236)" fill="#e4e4e4"/>
  <path id="Path_98" data-name="Path 98" d="M828.462,454.333H804.933a1.636,1.636,0,0,1,0-3.271h23.529a1.636,1.636,0,0,1,0,3.271Z" transform="translate(-555.467 -313.255)" fill="#e4e4e4"/>
  <circle id="Ellipse_15" data-name="Ellipse 15" cx="13.822" cy="13.822" r="13.822" transform="translate(105.956 64.072)" fill="#9e616a"/>
  <path id="Path_99" data-name="Path 99" d="M258.864,244.843H224.205l1.945-43.827.239-.251,3.441-3.632h10.944l4.061,3.932.32.312,8.642,8.28Z" transform="translate(-115.796 -101.814)" fill="#76e69b"/>
  <path id="Path_100" data-name="Path 100" d="M506.326,414.591H479.984c-.174-16.772-.312-29.426-.312-29.426l1.346-.819.008,0,14.774-8.97,3.1-5.038.016.178.912,10.619A182.61,182.61,0,0,1,506.326,414.591Z" transform="translate(-388.323 -271.562)" fill="#2f2e41"/>
  <path id="Path_101" data-name="Path 101" d="M581.461,414.591h-23.44a58.345,58.345,0,0,1-1.621-15.6c1.151-18.43-1.5-28.652-.353-28.652l.608.478,7.231,5.711,9.521,3.49,6.607,2.424,1.151.422v.555C581.169,386.2,581.2,399.152,581.461,414.591Z" transform="translate(-427.616 -271.562)" fill="#2f2e41"/>
  <path id="Path_102" data-name="Path 102" d="M507.632,310.57s1.174-2.062.9-8.952,10.219-2.993,18.985-3.65,6.911,11.5,6.911,11.5.632-.723,1.987-6.592-1.72-11.717-1.72-11.717c-.906-6.167-5.786-4.19-5.786-4.19a2.559,2.559,0,0,1,1.9,2.871c-1.989-3.488-6.869-1.511-6.869-1.511-6.509-4.084-13.105,1.294-13.105,1.294-7.863,1.784-3.252,8.037-3.252,8.037C499.676,301.658,507.632,310.57,507.632,310.57Z" transform="translate(-400.93 -228.351)" fill="#2f2e41"/>
  <path id="Path_103" data-name="Path 103" d="M464.534,429.553c.673-13.452,1.187-24.007.985-24.822-.567-2.266,7.438-5.334,7.681-5.423l0,0h0l1.528.823,1.119,29.426Z" transform="translate(-380.505 -286.524)" fill="#2f2e41"/>
  <path id="Path_104" data-name="Path 104" d="M603.98,424.847h-11.9l-3.405-33.629,1.4-1.025.332.077a27.686,27.686,0,0,1,6.607,2.424,4,4,0,0,1,1.151.977,1.178,1.178,0,0,1,.272.835C598.342,395.457,600.936,408.922,603.98,424.847Z" transform="translate(-444.622 -281.818)" fill="#2f2e41"/>
  <path id="Path_105" data-name="Path 105" d="M525.583,489.945H399.935a1.824,1.824,0,1,0,0,3.648H525.583a1.824,1.824,0,0,0,0-3.648Z" transform="translate(-346.199 -333.337)" fill="#cacaca"/>
  <path id="Path_106" data-name="Path 106" d="M491.536,489.945v3.648h-91.6a1.824,1.824,0,0,1,0-3.648Z" transform="translate(-346.199 -333.337)" fill="#3f3d56"/>
  <circle id="Ellipse_16" data-name="Ellipse 16" cx="3.648" cy="3.648" r="3.648" transform="translate(141.69 154.784)" fill="#3f3d56"/>
  <path id="Path_107" data-name="Path 107" d="M523.769,540.5a7.53,7.53,0,1,1,7.53-7.53A7.53,7.53,0,0,1,523.769,540.5Zm0-14.481a6.951,6.951,0,1,0,6.951,6.951,6.951,6.951,0,0,0-6.951-6.951Z" transform="translate(-407.209 -351.669)" fill="#76e69b"/>
  <path id="Path_108" data-name="Path 108" d="M529.446,540.736a.29.29,0,0,1-.29-.29v-7.53a.29.29,0,0,1,.579,0v7.53A.29.29,0,0,1,529.446,540.736Z" transform="translate(-413.88 -355.382)" fill="#76e69b"/>
  <path id="Path_109" data-name="Path 109" d="M533.56,540.736a.29.29,0,0,1-.29-.29v-7.53a.29.29,0,0,1,.579,0v7.53A.29.29,0,0,1,533.56,540.736Z" transform="translate(-416.005 -355.382)" fill="#76e69b"/>
  <path id="Path_110" data-name="Path 110" d="M460.483,532.969a7.53,7.53,0,1,1,7.53,7.53A7.53,7.53,0,0,1,460.483,532.969Zm.579,0a6.951,6.951,0,1,0,6.951-6.951A6.951,6.951,0,0,0,461.062,532.969Z" transform="translate(-378.413 -351.669)" fill="#3f3d56"/>
  <path id="Path_111" data-name="Path 111" d="M478.281,540.84a.241.241,0,0,0,.121-.449l-3.613-2.086,3.613-2.086a.241.241,0,1,0-.241-.417l-3.974,2.294a.241.241,0,0,0,0,.417l3.974,2.294A.24.24,0,0,0,478.281,540.84Z" transform="translate(-385.428 -357.004)" fill="#3f3d56"/>
  <path id="Path_112" data-name="Path 112" d="M471.5,540.783a.241.241,0,0,0,.241-.241V534.28a.241.241,0,1,0-.482,0v6.262a.241.241,0,0,0,.241.241Z" transform="translate(-383.981 -356.111)" fill="#3f3d56"/>
  <path id="Path_113" data-name="Path 113" d="M579.525,540.5a7.53,7.53,0,1,1,7.53-7.53A7.53,7.53,0,0,1,579.525,540.5Zm0-14.481a6.951,6.951,0,1,0,6.951,6.951,6.951,6.951,0,0,0-6.951-6.951Z" transform="translate(-436.005 -351.669)" fill="#3f3d56"/>
  <path id="Path_114" data-name="Path 114" d="M580.584,540.84a.241.241,0,0,1-.121-.449l3.613-2.086-3.613-2.086a.241.241,0,1,1,.241-.417l3.974,2.294a.241.241,0,0,1,0,.417l-3.974,2.294A.24.24,0,0,1,580.584,540.84Z" transform="translate(-440.317 -357.004)" fill="#3f3d56"/>
  <path id="Path_115" data-name="Path 115" d="M591.6,540.783a.241.241,0,0,1-.241-.241V534.28a.241.241,0,1,1,.482,0v6.262a.241.241,0,0,1-.241.241Z" transform="translate(-446.009 -356.111)" fill="#3f3d56"/>
  <path id="Path_116" data-name="Path 116" d="M378.6,532.381a3.854,3.854,0,0,1,.526-5.886l-3.7-13.184,6.779,2.164,2.479,12.188a3.875,3.875,0,0,1-6.08,4.717Z" transform="translate(-334.479 -345.405)" fill="#ffb6b6"/>
  <path id="Path_117" data-name="Path 117" d="M371.76,415.34l-1.4-1.461s-4.342,2.982-3.423,12.227c.679,6.828-1.466,9.724-1.226,29.571l6.054,18.176,7-3.67L373.7,447.756Z" transform="translate(-329.453 -294.051)" fill="#76e69b"/>
  <path id="Path_118" data-name="Path 118" d="M98.358,535.247h5.02l2.389-19.365h-7.41Z" transform="translate(-50.799 -266.439)" fill="#ffb6b6"/>
  <path id="Path_119" data-name="Path 119" d="M386.461,718.6h9.887a6.3,6.3,0,0,1,6.3,6.3v.205H386.461Z" transform="translate(-340.182 -451.431)" fill="#2f2e41"/>
  <path id="Path_120" data-name="Path 120" d="M128.639,531.724l4.983.611,4.728-18.93L131,512.5Z" transform="translate(-66.439 -264.694)" fill="#ffb6b6"/>
  <path id="Path_121" data-name="Path 121" d="M416.327,714.625l9.814,1.2h0a6.3,6.3,0,0,1,5.487,7.021l-.025.2-16.068-1.97Z" transform="translate(-355.198 -449.379)" fill="#2f2e41"/>
  <path id="Path_122" data-name="Path 122" d="M377.116,516.654s-9.671,6.61-4.836,24.5l6.539,69.443,7.769-.055,3.291-34.266,2.236-24.123,7.472,24.945-6.146,30.609,9.071.955,10.868-35.6-5.241-50.68Z" transform="translate(-332.159 -347.132)" fill="#2f2e41"/>
  <path id="Path_123" data-name="Path 123" d="M402.674,405.2l-4.917-3.955-13.041-.537-9.431,6.368s-.974,22.675,5.409,42.874l-3.346,8.438,33.455,4.2Z" transform="translate(-334.382 -287.249)" fill="#76e69b"/>
  <circle id="Ellipse_17" data-name="Ellipse 17" cx="11.186" cy="11.186" r="11.186" transform="translate(46.563 86.235)" fill="#ffb6b6"/>
  <path id="Path_124" data-name="Path 124" d="M393.408,338.424h-2.486A11.606,11.606,0,0,0,376,349.546l-3.872,12.776a2.466,2.466,0,0,0,2.36,3.181h1.89a5.563,5.563,0,0,0,.969-3.874,11.433,11.433,0,0,1,.733,2.666,4.7,4.7,0,0,1-.025,1.208H394.5a6.135,6.135,0,0,0-1.486-4.423,22.118,22.118,0,0,1,3.426,4.423h.309a2.466,2.466,0,0,0,2.466-2.466V350.513H405.5A12.088,12.088,0,0,0,393.408,338.424Z" transform="translate(-332.726 -254.831)" fill="#2f2e41"/>
  <path id="Path_125" data-name="Path 125" d="M438.6,530.381a3.854,3.854,0,0,1,.526-5.886l-3.7-13.184,6.779,2.165,2.479,12.188a3.875,3.875,0,0,1-6.08,4.717Z" transform="translate(-365.468 -344.372)" fill="#ffb6b6"/>
  <path id="Path_126" data-name="Path 126" d="M421.985,412.445l4.241-2.5s6.67-1.176,7.382,7.71,1.737,31.953,1.737,31.953l2.08,19.445-7.72,1.646-8.873-26.592Z" transform="translate(-357.934 -291.992)" fill="#76e69b"/>
  <path id="Path_127" data-name="Path 127" d="M393.741,732.908H291.234a.484.484,0,0,1,0-.967H393.741a.484.484,0,1,1,0,.967Z" transform="translate(-290.75 -458.322)" fill="#cacaca"/>
</svg>
