<svg xmlns="http://www.w3.org/2000/svg" width="343" height="248.622" viewBox="0 0 343 248.622">
  <g id="Group_4" data-name="Group 4" transform="translate(0 0)">
    <path id="Path_58" data-name="Path 58" d="M490.3,584.643v59.933H340.141c-17.108,0-31.027-13.443-31.027-29.966s13.919-29.966,31.027-29.966Z" transform="translate(-271.719 -398.258)" fill="#f2f2f2"/>
    <path id="Path_59" data-name="Path 59" d="M490.211,642.5a2.306,2.306,0,0,1-2.305,2.305H333.694a31.58,31.58,0,1,1,0-63.16H487.906a2.305,2.305,0,1,1,0,4.61H333.694a26.97,26.97,0,0,0,0,53.94H487.906A2.306,2.306,0,0,1,490.211,642.5Z" transform="translate(-267.946 -396.641)" fill="#76e69b"/>
    <path id="Path_60" data-name="Path 60" d="M512.933,613.565H351.575a.461.461,0,1,1,0-.922H512.933a.461.461,0,1,1,0,.922Z" transform="translate(-294.356 -413.35)" fill="#ccc"/>
    <path id="Path_61" data-name="Path 61" d="M512.933,637.565H351.575a.461.461,0,1,1,0-.922H512.933a.461.461,0,0,1,0,.922Z" transform="translate(-294.356 -426.285)" fill="#ccc"/>
    <path id="Path_62" data-name="Path 62" d="M512.933,661.565H351.575a.461.461,0,1,1,0-.922H512.933a.461.461,0,0,1,0,.922Z" transform="translate(-294.356 -439.221)" fill="#ccc"/>
    <path id="Path_63" data-name="Path 63" d="M512.933,685.565H351.575a.461.461,0,1,1,0-.922H512.933a.461.461,0,0,1,0,.922Z" transform="translate(-294.356 -452.156)" fill="#ccc"/>
    <path id="Path_64" data-name="Path 64" d="M759.382,490.742l-37.6,46.668L604.857,443.2c-13.322-10.734-15.726-29.935-5.359-42.8s29.64-14.6,42.962-3.867Z" transform="translate(-424.758 -293.076)" fill="#f2f2f2"/>
    <path id="Path_65" data-name="Path 65" d="M721.191,536.2a2.306,2.306,0,0,1-3.241.349L597.868,439.8A31.58,31.58,0,1,1,637.5,390.616l120.081,96.756a2.305,2.305,0,0,1-2.893,3.59L634.6,394.206a26.97,26.97,0,1,0-33.843,42l120.081,96.756a2.306,2.306,0,0,1,.349,3.241Z" transform="translate(-421.009 -289.914)" fill="#ccc"/>
    <path id="Path_66" data-name="Path 66" d="M787.916,513.157,662.27,411.918a.461.461,0,1,1,.578-.718L788.495,512.439a.461.461,0,0,1-.578.718Z" transform="translate(-461.97 -304.721)" fill="#ccc"/>
    <path id="Path_67" data-name="Path 67" d="M772.858,531.846,647.212,430.606a.461.461,0,0,1,.579-.718L773.437,531.127a.461.461,0,0,1-.578.718Z" transform="translate(-453.854 -314.794)" fill="#ccc"/>
    <path id="Path_68" data-name="Path 68" d="M757.8,550.534,632.154,449.3a.461.461,0,1,1,.578-.718L758.379,549.816a.461.461,0,1,1-.579.718Z" transform="translate(-445.738 -324.867)" fill="#ccc"/>
    <path id="Path_69" data-name="Path 69" d="M742.742,569.222,617.1,467.983a.461.461,0,1,1,.578-.718L743.32,568.5a.461.461,0,1,1-.578.718Z" transform="translate(-437.622 -334.939)" fill="#ccc"/>
    <path id="Path_70" data-name="Path 70" d="M570.539,718.565H228.461a.461.461,0,1,1,0-.922H570.539a.461.461,0,1,1,0,.922Z" transform="translate(-228 -469.942)" fill="#ccc"/>
    <path id="Path_71" data-name="Path 71" d="M328.989,366.855h-5.27l-2.507-20.329h7.779Z" transform="translate(-173.126 -186.769)" fill="#ffb8b8"/>
    <path id="Path_72" data-name="Path 72" d="M311,387.355h10.165v6.4H304.6a6.4,6.4,0,0,1,6.4-6.4Z" transform="translate(-164.173 -208.776)" fill="#2f2e41"/>
    <path id="Path_73" data-name="Path 73" d="M212.194,366.855h-5.27l-2.507-20.329H212.2Z" transform="translate(-110.176 -186.769)" fill="#ffb8b8"/>
    <path id="Path_74" data-name="Path 74" d="M194.206,387.355H204.37v6.4H187.806a6.4,6.4,0,0,1,6.4-6.4Z" transform="translate(-101.223 -208.776)" fill="#2f2e41"/>
    <path id="Path_75" data-name="Path 75" d="M487.471,223.813v-2.305a14.868,14.868,0,0,1,14.868-14.868h0a14.868,14.868,0,0,1,14.868,14.868v2.305a10.719,10.719,0,0,1-10.719,10.719h-8.3a10.719,10.719,0,0,1-10.719-10.719Z" transform="translate(-367.849 -194.523)" fill="#2f2e41"/>
    <circle id="Ellipse_10" data-name="Ellipse 10" cx="11.323" cy="11.323" r="11.323" transform="translate(123.167 18.156)" fill="#ffb8b8"/>
    <path id="Path_76" data-name="Path 76" d="M634.488,376.475" transform="translate(-447.088 -286.06)" fill="#ffb8b8"/>
    <path id="Path_77" data-name="Path 77" d="M384.508,327.334a4.323,4.323,0,0,1,6.583.773l9.707-1.836,2.554,5.627-13.744,2.4a4.346,4.346,0,0,1-5.1-6.964Z" transform="translate(-311.609 -258.938)" fill="#ffb8b8"/>
    <path id="Path_78" data-name="Path 78" d="M449.4,283.665l.127.192L433.61,294.343l-26.858,8.577a1.617,1.617,0,0,0-1.112,1.723l.586,5.047a1.614,1.614,0,0,0,1.941,1.392l25.278-5.418a9.131,9.131,0,0,0,3.4-1.5l17.882-12.723a4.6,4.6,0,0,0-5.2-7.587Z" transform="translate(-323.738 -235.732)" fill="#ccc"/>
    <path id="Path_79" data-name="Path 79" d="M487.079,444.2a2.083,2.083,0,0,1-1.908-1.246l-24.162-59.7a.691.691,0,0,0-1.295.073L440,441.443a2.075,2.075,0,0,1-2.712,1.333l-6.61-2.479a2.069,2.069,0,0,1-1.336-1.708c-2.974-25.906,22.959-91.3,23.221-91.953l.073-.182,23.64,5.229.049.054c9.431,10.289,17.184,75.184,18.642,88.089a2.065,2.065,0,0,1-1.37,2.188l-5.835,2.064A2.056,2.056,0,0,1,487.079,444.2Z" transform="translate(-336.392 -269.879)" fill="#2f2e41"/>
    <path id="Path_80" data-name="Path 80" d="M493.488,314.652c-5.728,0-12.113-1.142-14.079-5.855l-.045-.108.061-.1c1.551-2.546,3.6-6.888,2.5-7.7-2.171-1.605-3.225-4.246-3.131-7.849a18.911,18.911,0,0,1,13.262-17.28h0a58.848,58.848,0,0,1,6.575-1.693,11.194,11.194,0,0,1,9.282,2.292,11.307,11.307,0,0,1,4.193,8.7c.081,8.359-1.206,20-7.8,27.993a2.051,2.051,0,0,1-1.214.706,56.349,56.349,0,0,1-9.607.9Z" transform="translate(-363.169 -230.743)" fill="#ccc"/>
    <path id="Path_81" data-name="Path 81" d="M505.858,350.54a4.405,4.405,0,0,1,5.384-3.072,4.34,4.34,0,0,1,.667.247l7.37-6.707,5.126,3.453-10.54,9.327a4.4,4.4,0,0,1-4.985,2.115,4.331,4.331,0,0,1-3.022-5.362Z" transform="translate(-377.67 -266.944)" fill="#ffb8b8"/>
    <path id="Path_82" data-name="Path 82" d="M526.81,319.54a2.069,2.069,0,0,1-1.312-.468l-2.906-2.375a2.075,2.075,0,0,1,.05-3.253l12.19-9.349a.693.693,0,0,0,.131-.966l-7.524-9.947a6.125,6.125,0,0,1,.409-7.89h0a6.108,6.108,0,0,1,8.247-.66l.048.05L544,295.933a7,7,0,0,1-.166,11.15l-15.788,12.051A2.077,2.077,0,0,1,526.81,319.54Z" transform="translate(-386.368 -235.859)" fill="#ccc"/>
    <path id="Path_83" data-name="Path 83" d="M497.965,225.7v-5.618l10.03-4.38,9.564,4.38V225.7a.922.922,0,0,1-.922.922H498.887a.922.922,0,0,1-.922-.922Z" transform="translate(-373.505 -199.408)" fill="#2f2e41"/>
    <path id="Path_84" data-name="Path 84" d="M518.288,193.22c-1.475-4.72,1.622-10.13,6.2-12s10.056-.562,13.92,2.525,6.26,7.71,7.531,12.49,1.511,9.763,1.746,14.7c5.625,1.033,9.452,7.706,7.5,13.083s-9.162,8.049-14.143,5.238-6.424-10.366-2.829-14.814a12.159,12.159,0,0,0-14.148-18.86C521.3,196.744,517.818,193.732,518.288,193.22Z" transform="translate(-384.259 -180.357)" fill="#2f2e41"/>
    <path id="Path_85" data-name="Path 85" d="M357.36,252.175a48.153,48.153,0,0,1-19.523-4.276,2.062,2.062,0,0,1-1.223-1.892v-16.79a2.077,2.077,0,0,1,2.075-2.075h37.343a2.077,2.077,0,0,1,2.075,2.075v16.789a2.062,2.062,0,0,1-1.223,1.892h0A48.153,48.153,0,0,1,357.36,252.175Z" transform="translate(-286.541 -205.573)" fill="#76e69b"/>
    <path id="Path_86" data-name="Path 86" d="M344.558,219.347a2.077,2.077,0,0,1-.806-.162L314.14,206.692a2.074,2.074,0,0,1,.071-3.851l29.613-11.234a2.067,2.067,0,0,1,1.48,0l29.216,11.234a2.075,2.075,0,0,1,.071,3.844l-29.216,12.493a2.078,2.078,0,0,1-.816.166Z" transform="translate(-273.744 -186.347)" fill="#76e69b"/>
    <circle id="Ellipse_11" data-name="Ellipse 11" cx="2.766" cy="2.766" r="2.766" transform="translate(50.765 37.936)" fill="#3f3d56"/>
    <path id="Path_87" data-name="Path 87" d="M375.184,219.729l-29.216,12.493a1.844,1.844,0,0,1-1.442,0l-29.612-12.493a1.809,1.809,0,0,1-.882-.775,1.843,1.843,0,0,0,.882,2.619l29.612,12.493a1.844,1.844,0,0,0,1.442,0l29.216-12.493a1.843,1.843,0,0,0,.873-2.615A1.81,1.81,0,0,1,375.184,219.729Z" transform="translate(-274.237 -201.162)" opacity="0.2"/>
    <path id="Path_88" data-name="Path 88" d="M344.079,242.492a.461.461,0,0,0,.461-.461V226.6l15.205-5.539a.461.461,0,0,0,.014-.922l-15.205,5.539a.9.9,0,0,0-.661.265.915.915,0,0,0-.275.657v15.426A.461.461,0,0,0,344.079,242.492Z" transform="translate(-290.316 -201.801)" fill="#3f3d56"/>
  </g>
</svg>
