<svg xmlns="http://www.w3.org/2000/svg" width="342" height="247.049" viewBox="0 0 342 247.049">
  <g id="Group_1" data-name="Group 1" transform="translate(0 0)">
    <path id="Path_1" data-name="Path 1" d="M595.506,695.094H254.494a.494.494,0,1,1,0-.988H595.506a.494.494,0,1,1,0,.988Z" transform="translate(-254 -449.939)" fill="#ccc"/>
    <path id="Path_2" data-name="Path 2" d="M668.07,521.7H467.416a3.212,3.212,0,0,0,0,6.425H473.1v76.851a3.212,3.212,0,0,0,6.425,0l.049-76.851H655.467v76.851a3.212,3.212,0,0,0,6.425,0V529.821l.935-1.694h5.243a3.212,3.212,0,0,0,0-6.425Z" transform="translate(-360.317 -362.741)" fill="#ccc"/>
    <path id="Path_3" data-name="Path 3" d="M629.049,481.773h-60.78a4.444,4.444,0,0,1-4.439-4.439V443.871a4.444,4.444,0,0,1,4.439-4.439h60.78a4.444,4.444,0,0,1,4.439,4.439v33.463A4.444,4.444,0,0,1,629.049,481.773Z" transform="translate(-410.706 -321.131)" fill="#3f3d56"/>
    <path id="Path_4" data-name="Path 4" d="M632.545,446.345H571.766a1.025,1.025,0,0,0-1.023,1.023v33.464a1.025,1.025,0,0,0,1.023,1.023h60.779a1.025,1.025,0,0,0,1.023-1.023V447.368a1.025,1.025,0,0,0-1.023-1.023Z" transform="translate(-414.202 -324.627)" fill="#fff"/>
    <path id="Path_5" data-name="Path 5" d="M632.209,493.816s-7.276-1.677-11.278,1.4,5.093,10.06,5.093,10.06Z" transform="translate(-439.072 -348.406)" fill="#2f2e41"/>
    <circle id="Ellipse_1" data-name="Ellipse 1" cx="6.863" cy="6.863" r="6.863" transform="translate(181.446 128.515)" fill="#a0616a"/>
    <path id="Path_6" data-name="Path 6" d="M620.356,452.027a4.892,4.892,0,0,1,4.51-2.4,9.585,9.585,0,0,1,2.726.763l4.487,1.75c1.161.453,2.432,1.008,2.936,2.147a4.844,4.844,0,0,1-.234,3.381L633.1,462.9a15.939,15.939,0,0,0-.951-3.458,5.355,5.355,0,0,0-2.325-2.651,7.581,7.581,0,0,0-3.847-.522c-1.853.089-3.867.325-5.184,1.632a5.383,5.383,0,0,0-1.366,2.668,16.057,16.057,0,0,0-.287,3.021,25.047,25.047,0,0,1-1.912-4.1,10.146,10.146,0,0,1-.711-3.319,4.668,4.668,0,0,1,1.07-3.157,3.062,3.062,0,0,1,3.079-.969Z" transform="translate(-437.353 -326.282)" fill="#2f2e41"/>
    <path id="Path_7" data-name="Path 7" d="M635.434,499.343a1.222,1.222,0,0,0-1.023-.885.426.426,0,0,0-.049-.03l-10.246-5.742a1.3,1.3,0,0,0-1.744.449l-2.8,4.537-4.221-4.221-.067-.067a1.3,1.3,0,0,0-1.669-.146l-8.42,5.9c-.015,0-.03.005-.044.005a1.8,1.8,0,0,0-1.5,1.675l-.217,4.394H637.06Z" transform="translate(-430.737 -347.981)" fill="#76e69b"/>
    <path id="Path_8" data-name="Path 8" d="M631.376,516.115h-6.488a.683.683,0,0,0-.683-.683h-2.049a.683.683,0,0,0-.683.683h-2.049a.683.683,0,0,0-.683-.683h-2.048a.683.683,0,0,0-.683.683h-2.049a.683.683,0,0,0-.683-.683H611.23a.683.683,0,0,0-.683.683H608.5a.683.683,0,0,0-.683-.683h-2.049a.683.683,0,0,0-.683.683h-2.049a.683.683,0,0,0-.683-.683H600.3a.683.683,0,0,0-.683.683h-2.049a.683.683,0,0,0-.683-.683H594.84a.683.683,0,0,0-.683.683h-2.049a.683.683,0,0,0-.683-.683h-2.049a.683.683,0,0,0-.683.683h-2.049a.683.683,0,0,0-.683-.683h-2.049a.683.683,0,0,0-.683.683h-2.049a.683.683,0,0,0-.683-.683H578.45a.683.683,0,0,0-.683.683h-2.049a.683.683,0,0,0-.683-.683h-2.049a.683.683,0,0,0-.683.683h-2.049a.683.683,0,0,0-.683-.683h-2.049a.683.683,0,0,0-.683.683h-6.488a2.049,2.049,0,0,0,0,4.1h71.024a2.049,2.049,0,0,0,0-4.1Z" transform="translate(-407.911 -359.57)" fill="#3f3d56"/>
    <path id="Path_9" data-name="Path 9" d="M498.992,492.736v13.6H464.909a6.806,6.806,0,1,1,0-13.6Z" transform="translate(-357.112 -348.088)" fill="#f2f2f2"/>
    <path id="Path_10" data-name="Path 10" d="M499.079,505.918a.523.523,0,0,1-.523.523h-35a7.168,7.168,0,1,1,0-14.336h35a.523.523,0,0,1,0,1.047h-35a6.122,6.122,0,0,0,0,12.243h35A.523.523,0,0,1,499.079,505.918Z" transform="translate(-356.362 -347.771)" fill="#76e69b"/>
    <path id="Path_11" data-name="Path 11" d="M503.49,498.878H466.864a.1.1,0,0,1,0-.209h36.626a.1.1,0,0,1,0,.209Z" transform="translate(-361.609 -351.091)" fill="#ccc"/>
    <path id="Path_12" data-name="Path 12" d="M503.49,503.96H466.864a.1.1,0,0,1,0-.209h36.626a.1.1,0,0,1,0,.209Z" transform="translate(-361.609 -353.662)" fill="#ccc"/>
    <path id="Path_13" data-name="Path 13" d="M503.49,509.041H466.864a.1.1,0,0,1,0-.209h36.626a.1.1,0,0,1,0,.209Z" transform="translate(-361.609 -356.231)" fill="#ccc"/>
    <path id="Path_14" data-name="Path 14" d="M503.49,514.123H466.864a.1.1,0,0,1,0-.209h36.626a.1.1,0,0,1,0,.209Z" transform="translate(-361.609 -358.802)" fill="#ccc"/>
    <path id="Path_15" data-name="Path 15" d="M485.992,463.736v13.6H451.909a6.806,6.806,0,1,1,0-13.6Z" transform="translate(-350.536 -333.421)" fill="#f2f2f2"/>
    <path id="Path_16" data-name="Path 16" d="M486.079,476.918a.523.523,0,0,1-.523.523h-35a7.168,7.168,0,1,1,0-14.336h35a.523.523,0,1,1,0,1.046h-35a6.122,6.122,0,1,0,0,12.243h35A.523.523,0,0,1,486.079,476.918Z" transform="translate(-349.787 -333.104)" fill="#3f3d56"/>
    <path id="Path_17" data-name="Path 17" d="M490.49,469.878H453.864a.1.1,0,1,1,0-.209h36.625a.1.1,0,0,1,0,.209Z" transform="translate(-355.034 -336.424)" fill="#ccc"/>
    <path id="Path_18" data-name="Path 18" d="M490.49,474.96H453.864a.1.1,0,1,1,0-.209h36.625a.1.1,0,0,1,0,.209Z" transform="translate(-355.034 -338.994)" fill="#ccc"/>
    <path id="Path_19" data-name="Path 19" d="M490.49,480.041H453.864a.1.1,0,1,1,0-.209h36.625a.1.1,0,0,1,0,.209Z" transform="translate(-355.034 -341.564)" fill="#ccc"/>
    <path id="Path_20" data-name="Path 20" d="M490.49,485.123H453.864a.1.1,0,1,1,0-.209h36.625a.1.1,0,0,1,0,.209Z" transform="translate(-355.034 -344.134)" fill="#ccc"/>
    <path id="Path_21" data-name="Path 21" d="M558.231,603.943V592.082a1.977,1.977,0,0,0-1.977-1.977H511.28a1.977,1.977,0,0,0-1.977,1.977v11.861Z" transform="translate(-383.127 -397.338)" fill="#ccc"/>
    <rect id="Rectangle_2" data-name="Rectangle 2" width="48.928" height="15.321" transform="translate(126.176 211.053)" fill="#ccc"/>
    <path id="Path_22" data-name="Path 22" d="M509.3,667.1v11.861a1.977,1.977,0,0,0,1.977,1.977h44.974a1.977,1.977,0,0,0,1.977-1.977V667.1Z" transform="translate(-383.127 -436.283)" fill="#ccc"/>
    <circle id="Ellipse_2" data-name="Ellipse 2" cx="1.483" cy="1.483" r="1.483" transform="translate(148.91 198.698)" fill="#fff"/>
    <circle id="Ellipse_3" data-name="Ellipse 3" cx="1.483" cy="1.483" r="1.483" transform="translate(148.91 218.466)" fill="#fff"/>
    <circle id="Ellipse_4" data-name="Ellipse 4" cx="1.483" cy="1.483" r="1.483" transform="translate(148.989 237.816)" fill="#fff"/>
    <path id="Path_23" data-name="Path 23" d="M554.992,562.736v13.6H520.909a6.806,6.806,0,1,1,0-13.6Z" transform="translate(-385.435 -383.493)" fill="#f2f2f2"/>
    <path id="Path_24" data-name="Path 24" d="M555.079,575.918a.523.523,0,0,1-.523.523h-35a7.168,7.168,0,1,1,0-14.336h35a.523.523,0,0,1,0,1.046h-35a6.122,6.122,0,1,0,0,12.243h35a.523.523,0,0,1,.523.523Z" transform="translate(-384.686 -383.176)" fill="#3f3d56"/>
    <path id="Path_25" data-name="Path 25" d="M559.49,568.878H522.864a.1.1,0,1,1,0-.209h36.625a.1.1,0,1,1,0,.209Z" transform="translate(-389.933 -386.496)" fill="#ccc"/>
    <path id="Path_26" data-name="Path 26" d="M559.49,573.96H522.864a.1.1,0,1,1,0-.209h36.625a.1.1,0,1,1,0,.209Z" transform="translate(-389.933 -389.066)" fill="#ccc"/>
    <path id="Path_27" data-name="Path 27" d="M559.49,579.041H522.864a.1.1,0,0,1,0-.209h36.625a.1.1,0,0,1,0,.209Z" transform="translate(-389.933 -391.636)" fill="#ccc"/>
    <path id="Path_28" data-name="Path 28" d="M559.49,584.123H522.864a.1.1,0,0,1,0-.209h36.625a.1.1,0,0,1,0,.209Z" transform="translate(-389.933 -394.206)" fill="#ccc"/>
    <path id="Path_29" data-name="Path 29" d="M504.11,290.514V203.779a3.721,3.721,0,0,1,3.717-3.717H576.39a3.722,3.722,0,0,1,3.717,3.717v86.736a3.721,3.721,0,0,1-3.717,3.717H507.828a3.721,3.721,0,0,1-3.718-3.717Zm3.717-89.627a2.894,2.894,0,0,0-2.891,2.891v86.736a2.894,2.894,0,0,0,2.891,2.891H576.39a2.9,2.9,0,0,0,2.891-2.891V203.779a2.9,2.9,0,0,0-2.891-2.891Z" transform="translate(-380.501 -200.062)" fill="#e6e6e6"/>
    <path id="Path_30" data-name="Path 30" d="M588.776,260.531V242.722a1.861,1.861,0,0,1,1.859-1.859h15.092a1.861,1.861,0,0,1,1.859,1.859v17.81a1.861,1.861,0,0,1-1.859,1.859H590.635a1.861,1.861,0,0,1-1.859-1.859Z" transform="translate(-423.323 -220.698)" fill="#76e69b"/>
    <path id="Path_31" data-name="Path 31" d="M529.44,277.246v-17.81a1.861,1.861,0,0,1,1.859-1.859h15.092a1.861,1.861,0,0,1,1.859,1.859v17.81a1.861,1.861,0,0,1-1.859,1.859H531.3a1.861,1.861,0,0,1-1.859-1.858Z" transform="translate(-393.312 -229.152)" fill="#ccc"/>
    <path id="Path_32" data-name="Path 32" d="M577.076,328.224V310.415a1.861,1.861,0,0,1,1.859-1.859h15.092a1.861,1.861,0,0,1,1.859,1.859v17.81a1.861,1.861,0,0,1-1.859,1.859H578.935A1.861,1.861,0,0,1,577.076,328.224Z" transform="translate(-417.405 -254.936)" fill="#ff6584"/>
    <path id="Path_33" data-name="Path 33" d="M738.781,513.1H723.252a.959.959,0,0,0-.425.1l-3.919,1.962a.714.714,0,0,0,0,1.315l3.919,1.962a.958.958,0,0,0,.425.1h15.528a.815.815,0,0,0,.86-.756V513.86A.815.815,0,0,0,738.781,513.1Z" transform="translate(-488.921 -358.391)" fill="#3f3d56"/>
    <path id="Path_34" data-name="Path 34" d="M757.257,513.86v3.924a.815.815,0,0,1-.86.756H753.3V513.1H756.4A.815.815,0,0,1,757.257,513.86Z" transform="translate(-506.538 -358.391)" fill="#76e69b"/>
    <path id="Path_35" data-name="Path 35" d="M755.966,453.25a5.438,5.438,0,0,1,7.359,3.417,5.235,5.235,0,0,1,.158.709L785.2,468.144l5.025-3.33,6.253,7.2-7.673,6.232a5.51,5.51,0,0,1-6.574.254L760.2,463.262a5.182,5.182,0,0,1-.5.183,5.438,5.438,0,0,1-6.924-4.231,5.273,5.273,0,0,1-.08-.662,5.454,5.454,0,0,1,3.274-5.3Z" transform="translate(-506.225 -327.894)" fill="#ffb8b8"/>
    <path id="Path_36" data-name="Path 36" d="M799,587.853H775.271c0,.682-24.454,1.236-24.454,1.236a6.363,6.363,0,0,0-1.043.988,6.134,6.134,0,0,0-1.433,3.954v.988a6.18,6.18,0,0,0,6.178,6.178H799a6.183,6.183,0,0,0,6.178-6.178v-.988A6.186,6.186,0,0,0,799,587.853Z" transform="translate(-504.028 -396.199)" fill="#3f3d56"/>
    <rect id="Rectangle_3" data-name="Rectangle 3" width="6.425" height="41.514" transform="translate(275.586 246.267) rotate(180)" fill="#3f3d56"/>
    <path id="Path_37" data-name="Path 37" d="M761.617,691.556c0,.694,9.736.268,21.746.268s21.746.426,21.746-.268-9.736-6.2-21.746-6.2S761.617,690.862,761.617,691.556Z" transform="translate(-510.743 -445.514)" fill="#3f3d56"/>
    <path id="Path_38" data-name="Path 38" d="M510.2,471.91h-6.059L501.261,456.2H510.2Z" transform="translate(-253.528 -230.734)" fill="#ffb8b8"/>
    <path id="Path_39" data-name="Path 39" d="M756.486,691.9H736.949v-.247a7.6,7.6,0,0,1,7.6-7.6h11.933Z" transform="translate(-498.266 -444.854)" fill="#2f2e41"/>
    <path id="Path_40" data-name="Path 40" d="M741.787,611.13l-12.079-27.087a9.927,9.927,0,0,1,4.358-12.743l26.2-14.049,11.956-1.017,11.028-1,.08.135a11.163,11.163,0,0,1,.87,8.758c-1.216,3.406-4.378,6.067-9.4,7.908-11.72,4.3-25.259,7.97-30.536,9.35a1.705,1.705,0,0,0-1.093.87,1.729,1.729,0,0,0-.1,1.383L754.3,608.848a2.224,2.224,0,0,1-1.883,2.98l-8.385.61q-.107.01-.213.01a2.223,2.223,0,0,1-2.029-1.318Z" transform="translate(-494.175 -379.699)" fill="#2f2e41"/>
    <path id="Path_41" data-name="Path 41" d="M516.2,471.91h-6.059L507.261,456.2H516.2Z" transform="translate(-256.563 -230.734)" fill="#ffb8b8"/>
    <path id="Path_42" data-name="Path 42" d="M762.486,691.9H742.95v-.247a7.6,7.6,0,0,1,7.6-7.6h11.933Z" transform="translate(-501.301 -444.854)" fill="#2f2e41"/>
    <path id="Path_43" data-name="Path 43" d="M748.787,614.13l-12.079-27.087a9.927,9.927,0,0,1,4.358-12.743l26.2-14.049,11.956-1.017,11.028-1,.079.135a11.161,11.161,0,0,1,.87,8.758c-1.216,3.406-4.378,6.067-9.4,7.908-11.72,4.3-25.259,7.97-30.536,9.35a1.705,1.705,0,0,0-1.093.87,1.73,1.73,0,0,0-.1,1.383L761.3,611.848a2.224,2.224,0,0,1-1.883,2.98l-8.385.61q-.107.01-.213.01A2.222,2.222,0,0,1,748.787,614.13Z" transform="translate(-497.715 -381.217)" fill="#2f2e41"/>
    <path id="Path_44" data-name="Path 44" d="M737.541,468.778a82.784,82.784,0,0,1-11.9-22.206,2.126,2.126,0,0,1,1-2.56l17.369-9.307a2.1,2.1,0,0,1,1.841-.075,2.134,2.134,0,0,1,1.216,1.425,50.574,50.574,0,0,0,11.093,20.7,2.134,2.134,0,0,1,.513,1.8,2.1,2.1,0,0,1-1.082,1.492l-17.37,9.307A2.126,2.126,0,0,1,737.541,468.778Z" transform="translate(-492.49 -318.612)" fill="#ccc"/>
    <path id="Path_45" data-name="Path 45" d="M740.243,469.405a.642.642,0,0,0,.8.166l17.37-9.307a.616.616,0,0,0,.323-.443.651.651,0,0,0-.161-.557,52.062,52.062,0,0,1-11.42-21.313.652.652,0,0,0-.375-.442.616.616,0,0,0-.549.023l-17.369,9.307a.642.642,0,0,0-.306.76A81.3,81.3,0,0,0,740.243,469.4Z" transform="translate(-494.006 -320.13)" fill="#fff"/>
    <path id="Path_46" data-name="Path 46" d="M848.938,487.17l-13.6,5.169-3.321-9.225a5.52,5.52,0,0,1,2.472-6.672h0a5.52,5.52,0,0,1,7.049,1.376Z" transform="translate(-546.183 -339.486)" fill="#76e69b"/>
    <path id="Path_47" data-name="Path 47" d="M794.743,523.486a2.47,2.47,0,0,1-1.03-1.754c-1.742-16.265-.529-28.993,3.709-38.912a12.352,12.352,0,0,1,8.188-7.008l11-.555.057.028a12.852,12.852,0,0,1,7.027,13.634c-3.537,9.323-6.5,19.029-4.24,26.859a2.531,2.531,0,0,1-.239,1.969,2.414,2.414,0,0,1-1.54,1.141l-20.944,4.982a2.454,2.454,0,0,1-1.985-.384Z" transform="translate(-526.588 -339.25)" fill="#76e69b"/>
    <circle id="Ellipse_5" data-name="Ellipse 5" cx="12.139" cy="12.139" r="12.139" transform="translate(274.21 107.622)" fill="#ffb8b8"/>
    <path id="Path_48" data-name="Path 48" d="M753.192,458.39l-9.46,4.176a1.484,1.484,0,0,1-1.955-.758l-.234-.53a1.484,1.484,0,0,1,.758-1.955l9.46-4.176a1.484,1.484,0,0,1,1.955.758l.234.53a1.484,1.484,0,0,1-.758,1.955Z" transform="translate(-500.526 -329.015)" fill="#ccc"/>
    <path id="Path_49" data-name="Path 49" d="M760.192,471.39l-9.46,4.176a1.484,1.484,0,0,1-1.955-.758l-.234-.53a1.484,1.484,0,0,1,.758-1.955l9.46-4.176a1.484,1.484,0,0,1,1.955.758l.234.53a1.484,1.484,0,0,1-.758,1.955Z" transform="translate(-504.066 -335.591)" fill="#ccc"/>
    <path id="Path_50" data-name="Path 50" d="M758.06,497.762l-21.091-16.638a5.2,5.2,0,0,1-.512.151,5.45,5.45,0,0,1-4.358-.836,5.393,5.393,0,0,1-2.287-3.822,5.437,5.437,0,0,1,10.693-1.878,5.23,5.23,0,0,1,.113.718l21,12.112,5.225-3.008,5.788,7.577-8.112,5.782a5.408,5.408,0,0,1-6.454-.157Z" transform="translate(-494.638 -336.867)" fill="#ffb8b8"/>
    <path id="Path_51" data-name="Path 51" d="M809.371,500.046l-12.034-8.183,5.655-8.01a5.52,5.52,0,0,1,6.884-1.8h0a5.519,5.519,0,0,1,2.913,6.565Z" transform="translate(-528.809 -342.416)" fill="#76e69b"/>
    <path id="Path_52" data-name="Path 52" d="M811.429,423.4c-3.12,2.135-7.216,4.33-10.4,2.056a5.8,5.8,0,0,1-1.9-6.684c1.526-4.363,5.718-6.284,9.727-7.757,5.211-1.914,10.885-3.437,16.265-2.066s10.134,6.58,9.163,12.046c-.781,4.4-4.927,8.053-4.339,12.479.592,4.454,5.6,6.8,10.024,7.594s9.371,1.052,12.549,4.228c4.054,4.052,3.042,11.295-.773,15.573s-9.572,6.217-15.15,7.536c-7.391,1.747-15.385,2.665-22.4-.234s-12.482-10.7-10.448-18.019c.859-3.091,2.882-5.7,4.838-8.246s3.935-5.2,4.681-8.322a8.652,8.652,0,0,0-1.563-7.569,2.193,2.193,0,0,1-.294-2.563Z" transform="translate(-529.531 -305.446)" fill="#2f2e41"/>
    <path id="Path_53" data-name="Path 53" d="M328.469,505.987a19.306,19.306,0,0,1-18.642-3.284c-6.53-5.481-8.577-14.51-10.243-22.87L294.657,455.1l10.315,7.1c7.418,5.108,15,10.379,20.139,17.778s7.378,17.5,3.251,25.5" transform="translate(-274.563 -329.057)" fill="#e6e6e6"/>
    <path id="Path_54" data-name="Path 54" d="M346.167,568.078c1.044-7.6,2.118-15.307,1.385-22.994-.65-6.826-2.733-13.494-6.973-18.96a31.542,31.542,0,0,0-8.092-7.333c-.809-.511-1.554.772-.748,1.28A29.985,29.985,0,0,1,343.6,534.382c2.582,6.568,3,13.727,2.552,20.7-.269,4.219-.839,8.411-1.414,12.6a.768.768,0,0,0,.518.912.746.746,0,0,0,.912-.518Z" transform="translate(-293.144 -361.209)" fill="#f2f2f2"/>
    <path id="Path_55" data-name="Path 55" d="M297.452,575.664a14.212,14.212,0,0,1-12.383,6.391c-6.268-.3-11.494-4.672-16.2-8.826l-13.914-12.285,9.209-.441c6.622-.317,13.416-.612,19.723,1.43s12.125,6.957,13.278,13.486" transform="translate(-254.484 -382.252)" fill="#e6e6e6"/>
    <path id="Path_56" data-name="Path 56" d="M335.718,604c-5.025-8.892-10.854-18.774-21.269-21.932a23.735,23.735,0,0,0-8.946-.924c-.95.082-.713,1.546.235,1.464a22.049,22.049,0,0,1,14.276,3.777,37.11,37.11,0,0,1,9.812,10.589c1.625,2.474,3.08,5.054,4.536,7.63C334.829,605.427,336.188,604.833,335.718,604Z" transform="translate(-279.743 -392.76)" fill="#f2f2f2"/>
    <path id="Path_57" data-name="Path 57" d="M359.522,631.937a10.761,10.761,0,0,0-6.594-9.013v-5.14h-8.622v5.3a10.756,10.756,0,0,0-6.235,8.851L336.044,655.5h25.506Z" transform="translate(-295.496 -411.337)" fill="#f2f2f2"/>
  </g>
</svg>
