<svg xmlns="http://www.w3.org/2000/svg" width="116" height="112" viewBox="0 0 116 112">
  <g id="svgexport-6_12_" data-name="svgexport-6 (12)" transform="translate(-1.105 -9.498)">
    <g id="_x30_6_distance_education" transform="translate(1.105 9.498)">
      <g id="Group_517" data-name="Group 517" transform="translate(0 0)">
        <path id="Path_267" data-name="Path 267" d="M116.373,43.931,88.656,12.856a2.9,2.9,0,0,0-1.981-.953L45.086,9.5a2.874,2.874,0,0,0-2.32,4.777l4.64,5.2-3.6,7.443c-1.148.121-2.26.253-3.613.507A47.414,47.414,0,1,0,95.929,70.651a2.853,2.853,0,0,0,.81-1L107.07,48.31c6.863.4,7.02.41,7.153.41a2.88,2.88,0,0,0,2.151-4.789ZM13.176,46.3a51.83,51.83,0,0,0,12.554,5.416A80.135,80.135,0,0,0,22.7,72.883H3.546A45.013,45.013,0,0,1,13.176,46.3Zm1.535,57.457a51.483,51.483,0,0,1,11.732-4.994C29.366,107.6,33.68,114.248,38.755,118A45.074,45.074,0,0,1,14.71,103.753ZM47.382,93.306a82.437,82.437,0,0,0-19.332,2.5A78.031,78.031,0,0,1,25.113,75.3H47.382Zm0-40.846a79.084,79.084,0,0,1-18.607-2.413c3.057-9.192,7.673-15.9,13.037-19.011l-4.749,9.8a2.865,2.865,0,0,0,1.945,4.041,25.7,25.7,0,0,1,8.373,3.86V52.46ZM39.842,42.6c-.447-.109-.8-.314-.6-.724l9.908-20.447,7.25,8.13L50.861,41.012a1.207,1.207,0,1,0,2.175,1.05l5.1-10.543c9.11,10.218,11.575,12.98,12.131,13.6l.024.024c0,.012.012.024.024.036a.012.012,0,0,0,.012.012.736.736,0,0,0,.06.072L61.748,63.112C58.848,53.944,49.17,44.932,39.842,42.6Zm14.2,12.112c2.852,3.317,5.534,7.732,6.041,12.075a1.24,1.24,0,0,0,1.571,1.158c.7-.265,3.286-2.4,9.956-2.907.278,2.569.423,5.2.459,7.841H49.8V54.872c1.462-.012,2.888-.06,4.241-.157ZM49.8,52.46V50.542c.652.543,1.51,1.3,2.09,1.882C51.212,52.448,50.5,52.448,49.8,52.46Zm0,66.529V95.719a79.013,79.013,0,0,1,18.619,2.4c-4.084,12.22-11.092,20.1-18.619,20.869ZM84,101.883a53.34,53.34,0,0,0-12.542-5.416A81.13,81.13,0,0,0,74.495,75.3H93.622A45.045,45.045,0,0,1,84,101.883ZM94.564,68.6a.463.463,0,0,1-.507.229c-.012,0-2.247-1.532-2.259-1.532-7.673-4.825-19.55-6.309-27.875-3.136L72.562,46.32l31.9,1.846ZM114.2,46.308,72.417,43.9l-.048-.048c-.012-.024-.036-.036-.048-.048v-.012a.09.09,0,0,0-.036-.036c-.012-.012-.012-.012-.012-.024-.568-.639-3.021-3.378-11.8-13.233l13.206-.386a7.768,7.768,0,0,0,3.709,3.522,8.491,8.491,0,0,0,3.685.881,4.862,4.862,0,0,0,4.579-2.473c1.22-2.533-.483-5.8-3.891-7.443-3.77-1.822-7.189-.639-8.265,1.58a3.892,3.892,0,0,0-.35,1.532l-14.777.434C45.617,13.858,44.687,12.8,44.566,12.675a.459.459,0,0,1,.375-.76l41.589,2.4a.4.4,0,0,1,.314.157l27.717,31.063a.46.46,0,0,1-.362.772Z" transform="translate(-1.105 -9.498)" fill="#fafafa"/>
      </g>
    </g>
  </g>
</svg>
